<svg xmlns="http://www.w3.org/2000/svg" xmlns:xlink="http://www.w3.org/1999/xlink" xmlns:lucid="lucid" width="1272" height="1701"><g transform="translate(-219 160)" lucid:page-tab-id="0_0"><path d="M0-500h1500v2500H0z" fill="#fff"/><path d="M240 226a6 6 0 0 1 6-6h388a6 6 0 0 1 6 6v481a6 6 0 0 1-6 6H246a6 6 0 0 1-6-6z" stroke="#3a414a" stroke-width="2" fill="#edf5ff"/><path d="M240 262.67h400M240 474.5h400" stroke="#3a414a" stroke-width="2" fill="none"/><use xlink:href="#a" transform="matrix(1,0,0,1,248,228) translate(169.77777777777777 17.944444444444443)"/><use xlink:href="#b" transform="matrix(1,0,0,1,252,270.6666666666667) translate(0 49.11111111111111)"/><use xlink:href="#c" transform="matrix(1,0,0,1,252,270.6666666666667) translate(19.1358024691358 49.11111111111111)"/><use xlink:href="#d" transform="matrix(1,0,0,1,252,270.6666666666667) translate(115.37037037037037 49.11111111111111)"/><use xlink:href="#b" transform="matrix(1,0,0,1,252,270.6666666666667) translate(0 75.77777777777777)"/><use xlink:href="#e" transform="matrix(1,0,0,1,252,270.6666666666667) translate(19.1358024691358 75.77777777777777)"/><use xlink:href="#b" transform="matrix(1,0,0,1,252,270.6666666666667) translate(0 102.44444444444443)"/><use xlink:href="#f" transform="matrix(1,0,0,1,252,270.6666666666667) translate(19.1358024691358 102.44444444444443)"/><use xlink:href="#b" transform="matrix(1,0,0,1,252,270.6666666666667) translate(0 129.11111111111111)"/><use xlink:href="#g" transform="matrix(1,0,0,1,252,270.6666666666667) translate(19.1358024691358 129.11111111111111)"/><use xlink:href="#h" transform="matrix(1,0,0,1,252,270.6666666666667) translate(146.11111111111111 129.11111111111111)"/><use xlink:href="#i" transform="matrix(1,0,0,1,252,270.6666666666667) translate(0 155.77777777777777)"/><use xlink:href="#b" transform="matrix(1,0,0,1,252,482.50000000000006) translate(0 49.27777777777778)"/><use xlink:href="#j" transform="matrix(1,0,0,1,252,482.50000000000006) translate(19.1358024691358 49.27777777777778)"/><use xlink:href="#b" transform="matrix(1,0,0,1,252,482.50000000000006) translate(0 75.94444444444446)"/><use xlink:href="#k" transform="matrix(1,0,0,1,252,482.50000000000006) translate(19.1358024691358 75.94444444444446)"/><use xlink:href="#b" transform="matrix(1,0,0,1,252,482.50000000000006) translate(0 102.61111111111111)"/><use xlink:href="#l" transform="matrix(1,0,0,1,252,482.50000000000006) translate(19.1358024691358 102.61111111111111)"/><use xlink:href="#b" transform="matrix(1,0,0,1,252,482.50000000000006) translate(0 129.27777777777777)"/><use xlink:href="#m" transform="matrix(1,0,0,1,252,482.50000000000006) translate(19.1358024691358 129.27777777777777)"/><use xlink:href="#b" transform="matrix(1,0,0,1,252,482.50000000000006) translate(0 155.94444444444446)"/><use xlink:href="#n" transform="matrix(1,0,0,1,252,482.50000000000006) translate(19.1358024691358 155.94444444444446)"/><use xlink:href="#i" transform="matrix(1,0,0,1,252,482.50000000000006) translate(0 182.61111111111111)"/><path d="M1080 340a6 6 0 0 1 6-6h348a6 6 0 0 1 6 6v253a6 6 0 0 1-6 6h-348a6 6 0 0 1-6-6z" stroke="#3a414a" stroke-width="2" fill="#edf5ff"/><path d="M1080 376.67h360M1080 541h360" stroke="#3a414a" stroke-width="2" fill="none"/><use xlink:href="#o" transform="matrix(1,0,0,1,1088,342) translate(115.9506172839506 17.944444444444443)"/><use xlink:href="#b" transform="matrix(1,0,0,1,1092,384.6666666666667) translate(0 25.611111111111107)"/><use xlink:href="#p" transform="matrix(1,0,0,1,1092,384.6666666666667) translate(19.1358024691358 25.611111111111107)"/><use xlink:href="#q" transform="matrix(1,0,0,1,1092,384.6666666666667) translate(227.53086419753083 25.611111111111107)"/><use xlink:href="#r" transform="matrix(1,0,0,1,1092,384.6666666666667) translate(246.66666666666663 25.611111111111107)"/><use xlink:href="#b" transform="matrix(1,0,0,1,1092,384.6666666666667) translate(0 52.27777777777778)"/><use xlink:href="#s" transform="matrix(1,0,0,1,1092,384.6666666666667) translate(19.1358024691358 52.27777777777778)"/><use xlink:href="#b" transform="matrix(1,0,0,1,1092,384.6666666666667) translate(0 78.94444444444444)"/><use xlink:href="#t" transform="matrix(1,0,0,1,1092,384.6666666666667) translate(19.1358024691358 78.94444444444444)"/><use xlink:href="#b" transform="matrix(1,0,0,1,1092,384.6666666666667) translate(0 105.61111111111111)"/><use xlink:href="#u" transform="matrix(1,0,0,1,1092,384.6666666666667) translate(19.1358024691358 105.61111111111111)"/><use xlink:href="#v" transform="matrix(1,0,0,1,1092,384.6666666666667) translate(84.5679012345679 105.61111111111111)"/><use xlink:href="#b" transform="matrix(1,0,0,1,1092,384.6666666666667) translate(0 132.27777777777777)"/><use xlink:href="#w" transform="matrix(1,0,0,1,1092,384.6666666666667) translate(19.1358024691358 132.27777777777777)"/><use xlink:href="#x" transform="matrix(1,0,0,1,1092,384.6666666666667) translate(85.74074074074073 132.27777777777777)"/><path d="M1050 906a6 6 0 0 1 6-6h408a6 6 0 0 1 6 6v608a6 6 0 0 1-6 6h-408a6 6 0 0 1-6-6z" stroke="#3a414a" stroke-width="2" fill="#edf5ff"/><path d="M1050 942.67h420m-420 395.5h420" stroke="#3a414a" stroke-width="2" fill="none"/><g><use xlink:href="#y" transform="matrix(1,0,0,1,1058,908) translate(178.60493827160494 17.944444444444443)"/></g><g><use xlink:href="#z" transform="matrix(1,0,0,1,1062,950.6666666666666) translate(0 87.77777777777783)"/><use xlink:href="#A" transform="matrix(1,0,0,1,1062,950.6666666666666) translate(19.135802469135786 87.77777777777783)"/><use xlink:href="#z" transform="matrix(1,0,0,1,1062,950.6666666666666) translate(0 114.44444444444449)"/><use xlink:href="#B" transform="matrix(1,0,0,1,1062,950.6666666666666) translate(19.135802469135786 114.44444444444449)"/><use xlink:href="#C" transform="matrix(1,0,0,1,1062,950.6666666666666) translate(130.12345679012336 114.44444444444449)"/><use xlink:href="#D" transform="matrix(1,0,0,1,1062,950.6666666666666) translate(0 141.11111111111114)"/><use xlink:href="#E" transform="matrix(1,0,0,1,1062,950.6666666666666) translate(13.518518518518507 141.11111111111114)"/><use xlink:href="#C" transform="matrix(1,0,0,1,1062,950.6666666666666) translate(78.76543209876536 141.11111111111114)"/><use xlink:href="#D" transform="matrix(1,0,0,1,1062,950.6666666666666) translate(0 167.77777777777777)"/><use xlink:href="#F" transform="matrix(1,0,0,1,1062,950.6666666666666) translate(13.518518518518507 167.77777777777777)"/><use xlink:href="#G" transform="matrix(1,0,0,1,1062,950.6666666666666) translate(131.79012345679004 167.77777777777777)"/><use xlink:href="#D" transform="matrix(1,0,0,1,1062,950.6666666666666) translate(0 194.44444444444443)"/><use xlink:href="#H" transform="matrix(1,0,0,1,1062,950.6666666666666) translate(13.518518518518507 194.44444444444443)"/><use xlink:href="#I" transform="matrix(1,0,0,1,1062,950.6666666666666) translate(161.41975308641963 194.44444444444443)"/><use xlink:href="#D" transform="matrix(1,0,0,1,1062,950.6666666666666) translate(0 221.1111111111111)"/><use xlink:href="#J" transform="matrix(1,0,0,1,1062,950.6666666666666) translate(13.518518518518507 221.1111111111111)"/><use xlink:href="#K" transform="matrix(1,0,0,1,1062,950.6666666666666) translate(102.09876543209867 221.1111111111111)"/><use xlink:href="#D" transform="matrix(1,0,0,1,1062,950.6666666666666) translate(0 247.77777777777771)"/><use xlink:href="#L" transform="matrix(1,0,0,1,1062,950.6666666666666) translate(13.518518518518507 247.77777777777771)"/><use xlink:href="#M" transform="matrix(1,0,0,1,1062,950.6666666666666) translate(62.77777777777772 247.77777777777771)"/><use xlink:href="#D" transform="matrix(1,0,0,1,1062,950.6666666666666) translate(0 274.4444444444444)"/><use xlink:href="#N" transform="matrix(1,0,0,1,1062,950.6666666666666) translate(13.518518518518507 274.4444444444444)"/><use xlink:href="#C" transform="matrix(1,0,0,1,1062,950.6666666666666) translate(120.80246913580237 274.4444444444444)"/><use xlink:href="#O" transform="matrix(1,0,0,1,1062,950.6666666666666) translate(0 301.11111111111103)"/></g><path d="M300 1097a6 6 0 0 1 6-6h348a6 6 0 0 1 6 6v226a6 6 0 0 1-6 6H306a6 6 0 0 1-6-6z" stroke="#3a414a" stroke-width="2" fill="#edf5ff"/><path d="M300 1133.67h360m-360 111h360" stroke="#3a414a" stroke-width="2" fill="none"/><g><use xlink:href="#P" transform="matrix(1,0,0,1,308,1099) translate(148.57407407407408 17.944444444444443)"/></g><g><use xlink:href="#b" transform="matrix(1,0,0,1,312,1141.6666666666667) translate(0 25.27777777777778)"/><use xlink:href="#Q" transform="matrix(1,0,0,1,312,1141.6666666666667) translate(19.1358024691358 25.27777777777778)"/><use xlink:href="#R" transform="matrix(1,0,0,1,312,1141.6666666666667) translate(132.65432098765433 25.27777777777778)"/><use xlink:href="#b" transform="matrix(1,0,0,1,312,1141.6666666666667) translate(0 51.94444444444445)"/><use xlink:href="#S" transform="matrix(1,0,0,1,312,1141.6666666666667) translate(19.1358024691358 51.94444444444445)"/><use xlink:href="#T" transform="matrix(1,0,0,1,312,1141.6666666666667) translate(128.88888888888889 51.94444444444445)"/><use xlink:href="#b" transform="matrix(1,0,0,1,312,1141.6666666666667) translate(0 78.61111111111111)"/><use xlink:href="#U" transform="matrix(1,0,0,1,312,1141.6666666666667) translate(19.1358024691358 78.61111111111111)"/><use xlink:href="#V" transform="matrix(1,0,0,1,312,1141.6666666666667) translate(128.88888888888889 78.61111111111111)"/></g><g><use xlink:href="#b" transform="matrix(1,0,0,1,312,1252.6666666666667) translate(0 25.611111111111114)"/><use xlink:href="#j" transform="matrix(1,0,0,1,312,1252.6666666666667) translate(19.1358024691358 25.611111111111114)"/><use xlink:href="#i" transform="matrix(1,0,0,1,312,1252.6666666666667) translate(0 52.27777777777778)"/></g><path d="M720-94a6 6 0 0 1 6-6h228a6 6 0 0 1 6 6v48a6 6 0 0 1-6 6H726a6 6 0 0 1-6-6z" fill="none"/><g><use xlink:href="#W" transform="matrix(1,0,0,1,725,-95) translate(58.271604938271594 29.444444444444443)"/></g><path d="M720-134a6 6 0 0 1 6-6h228a6 6 0 0 1 6 6v48a6 6 0 0 1-6 6H726a6 6 0 0 1-6-6z" fill="none"/><g><use xlink:href="#X" transform="matrix(1,0,0,1,725,-135) translate(29.96913580246914 29.444444444444443)"/><use xlink:href="#Y" transform="matrix(1,0,0,1,725,-135) translate(97.80864197530863 29.444444444444443)"/><use xlink:href="#Z" transform="matrix(1,0,0,1,725,-135) translate(116.32716049382715 29.444444444444443)"/></g><path d="M680.4 1210h349.2" stroke="#3a414a" fill="none"/><path d="M661.22 1200l20 10-20 10" stroke="#3a414a" fill="#fff" fill-opacity="0"/><path d="M661.22 1210h20" stroke="#3a414a" fill="#fff"/><path d="M1048.78 1220l-20-10 20-10" stroke="#3a414a" fill="#fff" fill-opacity="0"/><path d="M1048.78 1210h-20" stroke="#3a414a" fill="#fff"/><path d="M1260 879.6V619.4" stroke="#3a414a" fill="none"/><path d="M1250 898.78l10-20 10 20" stroke="#3a414a" fill="#fff" fill-opacity="0"/><path d="M1260 898.78v-20" stroke="#3a414a" fill="#fff"/><path d="M1270 600.22l-10 20-10-20" stroke="#3a414a" fill="#fff" fill-opacity="0"/><path d="M1260 600.22v20" stroke="#3a414a" fill="#fff"/><path d="M1059.6 466.5H660.4" stroke="#3a414a" fill="none"/><path d="M1078.78 476.5l-20-10 20-10" stroke="#3a414a" fill="#fff" fill-opacity="0"/><path d="M1078.78 466.5h-20" stroke="#3a414a" fill="#fff"/><path d="M641.22 456.5l20 10-20 10" stroke="#3a414a" fill="#fff" fill-opacity="0"/><path d="M641.22 466.5h20" stroke="#3a414a" fill="#fff"/><path d="M1048.5 1110.9H851a6 6 0 0 1-6-6V585.9a6 6 0 0 0-6-6H660.4" stroke="#3a414a" fill="none"/><path d="M1049 1111.4h-.5v-1h.5z" stroke="#3a414a" stroke-width=".05" fill="#3a414a"/><path d="M641.22 569.88l20 10-20 10" stroke="#3a414a" fill="#fff" fill-opacity="0"/><path d="M641.22 579.88h20" stroke="#3a414a" fill="#fff"/><defs><path fill="#3a414a" d="M30-248c87 1 191-15 191 75 0 78-77 80-158 76V0H30v-248zm33 125c57 0 124 11 124-50 0-59-68-47-124-48v98" id="aa"/><path fill="#3a414a" d="M100-194c62-1 85 37 85 99 1 63-27 99-86 99S16-35 15-95c0-66 28-99 85-99zM99-20c44 1 53-31 53-75 0-43-8-75-51-75s-53 32-53 75 10 74 51 75" id="ab"/><path fill="#3a414a" d="M135-143c-3-34-86-38-87 0 15 53 115 12 119 90S17 21 10-45l28-5c4 36 97 45 98 0-10-56-113-15-118-90-4-57 82-63 122-42 12 7 21 19 24 35" id="ac"/><path fill="#3a414a" d="M59-47c-2 24 18 29 38 22v24C64 9 27 4 27-40v-127H5v-23h24l9-43h21v43h35v23H59v120" id="ad"/><g id="a"><use transform="matrix(0.06172839506172839,0,0,0.06172839506172839,0,0)" xlink:href="#aa"/><use transform="matrix(0.06172839506172839,0,0,0.06172839506172839,14.814814814814813,0)" xlink:href="#ab"/><use transform="matrix(0.06172839506172839,0,0,0.06172839506172839,27.160493827160494,0)" xlink:href="#ac"/><use transform="matrix(0.06172839506172839,0,0,0.06172839506172839,38.27160493827161,0)" xlink:href="#ad"/></g><path fill="#3a414a" d="M118-107v75H92v-75H18v-26h74v-75h26v75h74v26h-74" id="ae"/><use transform="matrix(0.06172839506172839,0,0,0.06172839506172839,0,0)" xlink:href="#ae" id="b"/><path fill="#3a414a" d="M115-194c55 1 70 41 70 98S169 2 115 4C84 4 66-9 55-30l1 105H24l-1-265h31l2 30c10-21 28-34 59-34zm-8 174c40 0 45-34 45-75s-6-73-45-74c-42 0-51 32-51 76 0 43 10 73 51 73" id="af"/><path fill="#3a414a" d="M-5 72V49h209v23H-5" id="ag"/><path fill="#3a414a" d="M84 4C-5 8 30-112 23-190h32v120c0 31 7 50 39 49 72-2 45-101 50-169h31l1 190h-30c-1-10 1-25-2-33-11 22-28 36-60 37" id="ah"/><path fill="#3a414a" d="M24-231v-30h32v30H24zM24 0v-190h32V0H24" id="ai"/><path fill="#3a414a" d="M85-194c31 0 48 13 60 33l-1-100h32l1 261h-30c-2-10 0-23-3-31C134-8 116 4 85 4 32 4 16-35 15-94c0-66 23-100 70-100zm9 24c-40 0-46 34-46 75 0 40 6 74 45 74 42 0 51-32 51-76 0-42-9-74-50-73" id="aj"/><path fill="#3a414a" d="M33-154v-36h34v36H33zM33 0v-36h34V0H33" id="ak"/><g id="c"><use transform="matrix(0.06172839506172839,0,0,0.06172839506172839,0,0)" xlink:href="#af"/><use transform="matrix(0.06172839506172839,0,0,0.06172839506172839,12.345679012345679,0)" xlink:href="#ab"/><use transform="matrix(0.06172839506172839,0,0,0.06172839506172839,24.691358024691358,0)" xlink:href="#ac"/><use transform="matrix(0.06172839506172839,0,0,0.06172839506172839,35.80246913580247,0)" xlink:href="#ad"/><use transform="matrix(0.06172839506172839,0,0,0.06172839506172839,41.97530864197531,0)" xlink:href="#ag"/><use transform="matrix(0.06172839506172839,0,0,0.06172839506172839,54.32098765432099,0)" xlink:href="#ah"/><use transform="matrix(0.06172839506172839,0,0,0.06172839506172839,66.66666666666667,0)" xlink:href="#ai"/><use transform="matrix(0.06172839506172839,0,0,0.06172839506172839,71.54320987654322,0)" xlink:href="#aj"/><use transform="matrix(0.06172839506172839,0,0,0.06172839506172839,83.8888888888889,0)" xlink:href="#ak"/></g><path fill="#3a414a" d="M114-163C36-179 61-72 57 0H25l-1-190h30c1 12-1 29 2 39 6-27 23-49 58-41v29" id="al"/><path fill="#3a414a" d="M117-194c89-4 53 116 60 194h-32v-121c0-31-8-49-39-48C34-167 62-67 57 0H25l-1-190h30c1 10-1 24 2 32 11-22 29-35 61-36" id="am"/><path fill="#3a414a" d="M177-190C167-65 218 103 67 71c-23-6-38-20-44-43l32-5c15 47 100 32 89-28v-30C133-14 115 1 83 1 29 1 15-40 15-95c0-56 16-97 71-98 29-1 48 16 59 35 1-10 0-23 2-32h30zM94-22c36 0 50-32 50-73 0-42-14-75-50-75-39 0-46 34-46 75s6 73 46 73" id="an"/><g id="d"><use transform="matrix(0.06172839506172839,0,0,0.06172839506172839,0,0)" xlink:href="#ac"/><use transform="matrix(0.06172839506172839,0,0,0.06172839506172839,11.11111111111111,0)" xlink:href="#ad"/><use transform="matrix(0.06172839506172839,0,0,0.06172839506172839,17.28395061728395,0)" xlink:href="#al"/><use transform="matrix(0.06172839506172839,0,0,0.06172839506172839,24.629629629629626,0)" xlink:href="#ai"/><use transform="matrix(0.06172839506172839,0,0,0.06172839506172839,29.50617283950617,0)" xlink:href="#am"/><use transform="matrix(0.06172839506172839,0,0,0.06172839506172839,41.85185185185185,0)" xlink:href="#an"/></g><path fill="#3a414a" d="M101-234c-31-9-42 10-38 44h38v23H63V0H32v-167H5v-23h27c-7-52 17-82 69-68v24" id="ao"/><g id="e"><use transform="matrix(0.06172839506172839,0,0,0.06172839506172839,0,0)" xlink:href="#af"/><use transform="matrix(0.06172839506172839,0,0,0.06172839506172839,12.345679012345679,0)" xlink:href="#ab"/><use transform="matrix(0.06172839506172839,0,0,0.06172839506172839,24.691358024691358,0)" xlink:href="#ac"/><use transform="matrix(0.06172839506172839,0,0,0.06172839506172839,35.80246913580247,0)" xlink:href="#ad"/><use transform="matrix(0.06172839506172839,0,0,0.06172839506172839,41.97530864197531,0)" xlink:href="#ag"/><use transform="matrix(0.06172839506172839,0,0,0.06172839506172839,54.32098765432099,0)" xlink:href="#ai"/><use transform="matrix(0.06172839506172839,0,0,0.06172839506172839,59.19753086419753,0)" xlink:href="#am"/><use transform="matrix(0.06172839506172839,0,0,0.06172839506172839,71.54320987654322,0)" xlink:href="#ao"/><use transform="matrix(0.06172839506172839,0,0,0.06172839506172839,77.71604938271605,0)" xlink:href="#ab"/><use transform="matrix(0.06172839506172839,0,0,0.06172839506172839,90.06172839506173,0)" xlink:href="#ak"/><use transform="matrix(0.06172839506172839,0,0,0.06172839506172839,96.23456790123457,0)" xlink:href="#ac"/><use transform="matrix(0.06172839506172839,0,0,0.06172839506172839,107.34567901234568,0)" xlink:href="#ad"/><use transform="matrix(0.06172839506172839,0,0,0.06172839506172839,113.51851851851852,0)" xlink:href="#al"/><use transform="matrix(0.06172839506172839,0,0,0.06172839506172839,120.8641975308642,0)" xlink:href="#ai"/><use transform="matrix(0.06172839506172839,0,0,0.06172839506172839,125.74074074074075,0)" xlink:href="#am"/><use transform="matrix(0.06172839506172839,0,0,0.06172839506172839,138.08641975308643,0)" xlink:href="#an"/></g><path fill="#3a414a" d="M96-169c-40 0-48 33-48 73s9 75 48 75c24 0 41-14 43-38l32 2c-6 37-31 61-74 61-59 0-76-41-82-99-10-93 101-131 147-64 4 7 5 14 7 22l-32 3c-4-21-16-35-41-35" id="ap"/><path fill="#3a414a" d="M24 0v-261h32V0H24" id="aq"/><path fill="#3a414a" d="M143 0L79-87 56-68V0H24v-261h32v163l83-92h37l-77 82L181 0h-38" id="ar"/><path fill="#3a414a" d="M100-194c63 0 86 42 84 106H49c0 40 14 67 53 68 26 1 43-12 49-29l28 8c-11 28-37 45-77 45C44 4 14-33 15-96c1-61 26-98 85-98zm52 81c6-60-76-77-97-28-3 7-6 17-6 28h103" id="as"/><g id="f"><use transform="matrix(0.06172839506172839,0,0,0.06172839506172839,0,0)" xlink:href="#ap"/><use transform="matrix(0.06172839506172839,0,0,0.06172839506172839,11.11111111111111,0)" xlink:href="#am"/><use transform="matrix(0.06172839506172839,0,0,0.06172839506172839,23.45679012345679,0)" xlink:href="#ad"/><use transform="matrix(0.06172839506172839,0,0,0.06172839506172839,29.62962962962963,0)" xlink:href="#ag"/><use transform="matrix(0.06172839506172839,0,0,0.06172839506172839,41.97530864197531,0)" xlink:href="#aq"/><use transform="matrix(0.06172839506172839,0,0,0.06172839506172839,46.851851851851855,0)" xlink:href="#ai"/><use transform="matrix(0.06172839506172839,0,0,0.06172839506172839,51.7283950617284,0)" xlink:href="#ar"/><use transform="matrix(0.06172839506172839,0,0,0.06172839506172839,62.839506172839506,0)" xlink:href="#as"/><use transform="matrix(0.06172839506172839,0,0,0.06172839506172839,75.18518518518519,0)" xlink:href="#ac"/><use transform="matrix(0.06172839506172839,0,0,0.06172839506172839,86.2962962962963,0)" xlink:href="#ak"/><use transform="matrix(0.06172839506172839,0,0,0.06172839506172839,92.46913580246914,0)" xlink:href="#ai"/><use transform="matrix(0.06172839506172839,0,0,0.06172839506172839,97.34567901234568,0)" xlink:href="#am"/><use transform="matrix(0.06172839506172839,0,0,0.06172839506172839,109.69135802469137,0)" xlink:href="#ad"/></g><g id="g"><use transform="matrix(0.06172839506172839,0,0,0.06172839506172839,0,0)" xlink:href="#ap"/><use transform="matrix(0.06172839506172839,0,0,0.06172839506172839,11.11111111111111,0)" xlink:href="#am"/><use transform="matrix(0.06172839506172839,0,0,0.06172839506172839,23.45679012345679,0)" xlink:href="#ad"/><use transform="matrix(0.06172839506172839,0,0,0.06172839506172839,29.62962962962963,0)" xlink:href="#ag"/><use transform="matrix(0.06172839506172839,0,0,0.06172839506172839,41.97530864197531,0)" xlink:href="#aj"/><use transform="matrix(0.06172839506172839,0,0,0.06172839506172839,54.32098765432099,0)" xlink:href="#ai"/><use transform="matrix(0.06172839506172839,0,0,0.06172839506172839,59.19753086419753,0)" xlink:href="#ac"/><use transform="matrix(0.06172839506172839,0,0,0.06172839506172839,70.30864197530865,0)" xlink:href="#aq"/><use transform="matrix(0.06172839506172839,0,0,0.06172839506172839,75.18518518518519,0)" xlink:href="#ai"/><use transform="matrix(0.06172839506172839,0,0,0.06172839506172839,80.06172839506173,0)" xlink:href="#ar"/><use transform="matrix(0.06172839506172839,0,0,0.06172839506172839,91.17283950617285,0)" xlink:href="#as"/><use transform="matrix(0.06172839506172839,0,0,0.06172839506172839,103.51851851851853,0)" xlink:href="#ac"/><use transform="matrix(0.06172839506172839,0,0,0.06172839506172839,114.62962962962965,0)" xlink:href="#ak"/></g><g id="h"><use transform="matrix(0.06172839506172839,0,0,0.06172839506172839,0,0)" xlink:href="#ai"/><use transform="matrix(0.06172839506172839,0,0,0.06172839506172839,4.876543209876543,0)" xlink:href="#am"/><use transform="matrix(0.06172839506172839,0,0,0.06172839506172839,17.22222222222222,0)" xlink:href="#ad"/></g><path fill="#3a414a" d="M212-179c-10-28-35-45-73-45-59 0-87 40-87 99 0 60 29 101 89 101 43 0 62-24 78-52l27 14C228-24 195 4 139 4 59 4 22-46 18-125c-6-104 99-153 187-111 19 9 31 26 39 46" id="at"/><path fill="#3a414a" d="M141-36C126-15 110 5 73 4 37 3 15-17 15-53c-1-64 63-63 125-63 3-35-9-54-41-54-24 1-41 7-42 31l-33-3c5-37 33-52 76-52 45 0 72 20 72 64v82c-1 20 7 32 28 27v20c-31 9-61-2-59-35zM48-53c0 20 12 33 32 33 41-3 63-29 60-74-43 2-92-5-92 41" id="au"/><path fill="#3a414a" d="M87 75C49 33 22-17 22-94c0-76 28-126 65-167h31c-38 41-64 92-64 168S80 34 118 75H87" id="av"/><path fill="#3a414a" d="M210-169c-67 3-38 105-44 169h-31v-121c0-29-5-50-35-48C34-165 62-65 56 0H25l-1-190h30c1 10-1 24 2 32 10-44 99-50 107 0 11-21 27-35 58-36 85-2 47 119 55 194h-31v-121c0-29-5-49-35-48" id="aw"/><path fill="#3a414a" d="M33-261c38 41 65 92 65 168S71 34 33 75H2C39 34 66-17 66-93S39-220 2-261h31" id="ax"/><g id="j"><use transform="matrix(0.06172839506172839,0,0,0.06172839506172839,0,0)" xlink:href="#at"/><use transform="matrix(0.06172839506172839,0,0,0.06172839506172839,15.987654320987653,0)" xlink:href="#al"/><use transform="matrix(0.06172839506172839,0,0,0.06172839506172839,23.333333333333332,0)" xlink:href="#as"/><use transform="matrix(0.06172839506172839,0,0,0.06172839506172839,35.67901234567901,0)" xlink:href="#au"/><use transform="matrix(0.06172839506172839,0,0,0.06172839506172839,48.02469135802469,0)" xlink:href="#ad"/><use transform="matrix(0.06172839506172839,0,0,0.06172839506172839,54.19753086419753,0)" xlink:href="#as"/><use transform="matrix(0.06172839506172839,0,0,0.06172839506172839,66.54320987654322,0)" xlink:href="#av"/><use transform="matrix(0.06172839506172839,0,0,0.06172839506172839,73.8888888888889,0)" xlink:href="#af"/><use transform="matrix(0.06172839506172839,0,0,0.06172839506172839,86.23456790123458,0)" xlink:href="#au"/><use transform="matrix(0.06172839506172839,0,0,0.06172839506172839,98.58024691358027,0)" xlink:href="#al"/><use transform="matrix(0.06172839506172839,0,0,0.06172839506172839,105.92592592592595,0)" xlink:href="#au"/><use transform="matrix(0.06172839506172839,0,0,0.06172839506172839,118.27160493827164,0)" xlink:href="#aw"/><use transform="matrix(0.06172839506172839,0,0,0.06172839506172839,136.72839506172843,0)" xlink:href="#ac"/><use transform="matrix(0.06172839506172839,0,0,0.06172839506172839,147.83950617283955,0)" xlink:href="#ax"/></g><path fill="#3a414a" d="M232-93c-1 65-40 97-104 97C67 4 28-28 28-90v-158h33c8 89-33 224 67 224 102 0 64-133 71-224h33v155" id="ay"/><g id="k"><use transform="matrix(0.06172839506172839,0,0,0.06172839506172839,0,0)" xlink:href="#ay"/><use transform="matrix(0.06172839506172839,0,0,0.06172839506172839,15.987654320987653,0)" xlink:href="#af"/><use transform="matrix(0.06172839506172839,0,0,0.06172839506172839,28.333333333333332,0)" xlink:href="#aj"/><use transform="matrix(0.06172839506172839,0,0,0.06172839506172839,40.67901234567901,0)" xlink:href="#au"/><use transform="matrix(0.06172839506172839,0,0,0.06172839506172839,53.02469135802469,0)" xlink:href="#ad"/><use transform="matrix(0.06172839506172839,0,0,0.06172839506172839,59.19753086419753,0)" xlink:href="#as"/><use transform="matrix(0.06172839506172839,0,0,0.06172839506172839,71.54320987654322,0)" xlink:href="#av"/><use transform="matrix(0.06172839506172839,0,0,0.06172839506172839,78.8888888888889,0)" xlink:href="#af"/><use transform="matrix(0.06172839506172839,0,0,0.06172839506172839,91.23456790123458,0)" xlink:href="#au"/><use transform="matrix(0.06172839506172839,0,0,0.06172839506172839,103.58024691358027,0)" xlink:href="#al"/><use transform="matrix(0.06172839506172839,0,0,0.06172839506172839,110.92592592592595,0)" xlink:href="#au"/><use transform="matrix(0.06172839506172839,0,0,0.06172839506172839,123.27160493827164,0)" xlink:href="#aw"/><use transform="matrix(0.06172839506172839,0,0,0.06172839506172839,141.72839506172843,0)" xlink:href="#ac"/><use transform="matrix(0.06172839506172839,0,0,0.06172839506172839,152.83950617283955,0)" xlink:href="#ax"/></g><path fill="#3a414a" d="M30-248c118-7 216 8 213 122C240-48 200 0 122 0H30v-248zM63-27c89 8 146-16 146-99s-60-101-146-95v194" id="az"/><g id="l"><use transform="matrix(0.06172839506172839,0,0,0.06172839506172839,0,0)" xlink:href="#az"/><use transform="matrix(0.06172839506172839,0,0,0.06172839506172839,15.987654320987653,0)" xlink:href="#as"/><use transform="matrix(0.06172839506172839,0,0,0.06172839506172839,28.333333333333332,0)" xlink:href="#aq"/><use transform="matrix(0.06172839506172839,0,0,0.06172839506172839,33.20987654320987,0)" xlink:href="#as"/><use transform="matrix(0.06172839506172839,0,0,0.06172839506172839,45.55555555555555,0)" xlink:href="#ad"/><use transform="matrix(0.06172839506172839,0,0,0.06172839506172839,51.72839506172839,0)" xlink:href="#as"/><use transform="matrix(0.06172839506172839,0,0,0.06172839506172839,64.07407407407408,0)" xlink:href="#av"/><use transform="matrix(0.06172839506172839,0,0,0.06172839506172839,71.41975308641976,0)" xlink:href="#af"/><use transform="matrix(0.06172839506172839,0,0,0.06172839506172839,83.76543209876544,0)" xlink:href="#au"/><use transform="matrix(0.06172839506172839,0,0,0.06172839506172839,96.11111111111113,0)" xlink:href="#al"/><use transform="matrix(0.06172839506172839,0,0,0.06172839506172839,103.45679012345681,0)" xlink:href="#au"/><use transform="matrix(0.06172839506172839,0,0,0.06172839506172839,115.8024691358025,0)" xlink:href="#aw"/><use transform="matrix(0.06172839506172839,0,0,0.06172839506172839,134.2592592592593,0)" xlink:href="#ac"/><use transform="matrix(0.06172839506172839,0,0,0.06172839506172839,145.3703703703704,0)" xlink:href="#ax"/></g><path fill="#3a414a" d="M30 0v-248h33v221h125V0H30" id="aA"/><g id="m"><use transform="matrix(0.06172839506172839,0,0,0.06172839506172839,0,0)" xlink:href="#aA"/><use transform="matrix(0.06172839506172839,0,0,0.06172839506172839,12.345679012345679,0)" xlink:href="#ai"/><use transform="matrix(0.06172839506172839,0,0,0.06172839506172839,17.22222222222222,0)" xlink:href="#ar"/><use transform="matrix(0.06172839506172839,0,0,0.06172839506172839,28.333333333333332,0)" xlink:href="#as"/><use transform="matrix(0.06172839506172839,0,0,0.06172839506172839,40.67901234567901,0)" xlink:href="#av"/><use transform="matrix(0.06172839506172839,0,0,0.06172839506172839,48.02469135802469,0)" xlink:href="#af"/><use transform="matrix(0.06172839506172839,0,0,0.06172839506172839,60.37037037037037,0)" xlink:href="#au"/><use transform="matrix(0.06172839506172839,0,0,0.06172839506172839,72.71604938271605,0)" xlink:href="#al"/><use transform="matrix(0.06172839506172839,0,0,0.06172839506172839,80.06172839506173,0)" xlink:href="#au"/><use transform="matrix(0.06172839506172839,0,0,0.06172839506172839,92.40740740740742,0)" xlink:href="#aw"/><use transform="matrix(0.06172839506172839,0,0,0.06172839506172839,110.8641975308642,0)" xlink:href="#ac"/><use transform="matrix(0.06172839506172839,0,0,0.06172839506172839,121.97530864197532,0)" xlink:href="#ax"/></g><g id="n"><use transform="matrix(0.06172839506172839,0,0,0.06172839506172839,0,0)" xlink:href="#az"/><use transform="matrix(0.06172839506172839,0,0,0.06172839506172839,15.987654320987653,0)" xlink:href="#ai"/><use transform="matrix(0.06172839506172839,0,0,0.06172839506172839,20.864197530864196,0)" xlink:href="#ac"/><use transform="matrix(0.06172839506172839,0,0,0.06172839506172839,31.975308641975307,0)" xlink:href="#aq"/><use transform="matrix(0.06172839506172839,0,0,0.06172839506172839,36.85185185185185,0)" xlink:href="#ai"/><use transform="matrix(0.06172839506172839,0,0,0.06172839506172839,41.72839506172839,0)" xlink:href="#ar"/><use transform="matrix(0.06172839506172839,0,0,0.06172839506172839,52.839506172839506,0)" xlink:href="#as"/><use transform="matrix(0.06172839506172839,0,0,0.06172839506172839,65.18518518518519,0)" xlink:href="#ac"/><use transform="matrix(0.06172839506172839,0,0,0.06172839506172839,76.2962962962963,0)" xlink:href="#av"/><use transform="matrix(0.06172839506172839,0,0,0.06172839506172839,83.64197530864199,0)" xlink:href="#af"/><use transform="matrix(0.06172839506172839,0,0,0.06172839506172839,95.98765432098767,0)" xlink:href="#au"/><use transform="matrix(0.06172839506172839,0,0,0.06172839506172839,108.33333333333336,0)" xlink:href="#al"/><use transform="matrix(0.06172839506172839,0,0,0.06172839506172839,115.67901234567904,0)" xlink:href="#au"/><use transform="matrix(0.06172839506172839,0,0,0.06172839506172839,128.0246913580247,0)" xlink:href="#aw"/><use transform="matrix(0.06172839506172839,0,0,0.06172839506172839,146.4814814814815,0)" xlink:href="#ac"/><use transform="matrix(0.06172839506172839,0,0,0.06172839506172839,157.5925925925926,0)" xlink:href="#ax"/></g><path fill="#3a414a" d="M179-190L93 31C79 59 56 82 12 73V49c39 6 53-20 64-50L1-190h34L92-34l54-156h33" id="aB"/><g id="o"><use transform="matrix(0.06172839506172839,0,0,0.06172839506172839,0,0)" xlink:href="#at"/><use transform="matrix(0.06172839506172839,0,0,0.06172839506172839,15.987654320987653,0)" xlink:href="#ab"/><use transform="matrix(0.06172839506172839,0,0,0.06172839506172839,28.333333333333332,0)" xlink:href="#aw"/><use transform="matrix(0.06172839506172839,0,0,0.06172839506172839,46.79012345679012,0)" xlink:href="#aw"/><use transform="matrix(0.06172839506172839,0,0,0.06172839506172839,65.24691358024691,0)" xlink:href="#ah"/><use transform="matrix(0.06172839506172839,0,0,0.06172839506172839,77.5925925925926,0)" xlink:href="#am"/><use transform="matrix(0.06172839506172839,0,0,0.06172839506172839,89.93827160493828,0)" xlink:href="#ai"/><use transform="matrix(0.06172839506172839,0,0,0.06172839506172839,94.81481481481482,0)" xlink:href="#ad"/><use transform="matrix(0.06172839506172839,0,0,0.06172839506172839,100.98765432098766,0)" xlink:href="#aB"/></g><path fill="#3a414a" d="M115-194c53 0 69 39 70 98 0 66-23 100-70 100C84 3 66-7 56-30L54 0H23l1-261h32v101c10-23 28-34 59-34zm-8 174c40 0 45-34 45-75 0-40-5-75-45-74-42 0-51 32-51 76 0 43 10 73 51 73" id="aC"/><g id="p"><use transform="matrix(0.06172839506172839,0,0,0.06172839506172839,0,0)" xlink:href="#am"/><use transform="matrix(0.06172839506172839,0,0,0.06172839506172839,12.345679012345679,0)" xlink:href="#ah"/><use transform="matrix(0.06172839506172839,0,0,0.06172839506172839,24.691358024691358,0)" xlink:href="#aw"/><use transform="matrix(0.06172839506172839,0,0,0.06172839506172839,43.148148148148145,0)" xlink:href="#aC"/><use transform="matrix(0.06172839506172839,0,0,0.06172839506172839,55.49382716049382,0)" xlink:href="#as"/><use transform="matrix(0.06172839506172839,0,0,0.06172839506172839,67.8395061728395,0)" xlink:href="#al"/><use transform="matrix(0.06172839506172839,0,0,0.06172839506172839,75.18518518518519,0)" xlink:href="#ag"/><use transform="matrix(0.06172839506172839,0,0,0.06172839506172839,87.53086419753087,0)" xlink:href="#ab"/><use transform="matrix(0.06172839506172839,0,0,0.06172839506172839,99.87654320987656,0)" xlink:href="#ao"/><use transform="matrix(0.06172839506172839,0,0,0.06172839506172839,106.0493827160494,0)" xlink:href="#ag"/><use transform="matrix(0.06172839506172839,0,0,0.06172839506172839,118.39506172839508,0)" xlink:href="#ah"/><use transform="matrix(0.06172839506172839,0,0,0.06172839506172839,130.74074074074076,0)" xlink:href="#ac"/><use transform="matrix(0.06172839506172839,0,0,0.06172839506172839,141.85185185185188,0)" xlink:href="#as"/><use transform="matrix(0.06172839506172839,0,0,0.06172839506172839,154.19753086419755,0)" xlink:href="#al"/><use transform="matrix(0.06172839506172839,0,0,0.06172839506172839,161.54320987654322,0)" xlink:href="#ac"/><use transform="matrix(0.06172839506172839,0,0,0.06172839506172839,172.65432098765433,0)" xlink:href="#ak"/><use transform="matrix(0.06172839506172839,0,0,0.06172839506172839,178.82716049382717,0)" xlink:href="#ai"/><use transform="matrix(0.06172839506172839,0,0,0.06172839506172839,183.7037037037037,0)" xlink:href="#am"/><use transform="matrix(0.06172839506172839,0,0,0.06172839506172839,196.04938271604937,0)" xlink:href="#ad"/></g><path fill="#3a414a" d="M18-150v-26h174v26H18zm0 90v-26h174v26H18" id="aD"/><use transform="matrix(0.06172839506172839,0,0,0.06172839506172839,0,0)" xlink:href="#aD" id="q"/><path fill="#3a414a" d="M101-251c68 0 85 55 85 127S166 4 100 4C33 4 14-52 14-124c0-73 17-127 87-127zm-1 229c47 0 54-49 54-102s-4-102-53-102c-51 0-55 48-55 102 0 53 5 102 54 102" id="aE"/><use transform="matrix(0.06172839506172839,0,0,0.06172839506172839,0,0)" xlink:href="#aE" id="r"/><path fill="#3a414a" d="M185-189c-5-48-123-54-124 2 14 75 158 14 163 119 3 78-121 87-175 55-17-10-28-26-33-46l33-7c5 56 141 63 141-1 0-78-155-14-162-118-5-82 145-84 179-34 5 7 8 16 11 25" id="aF"/><g id="s"><use transform="matrix(0.06172839506172839,0,0,0.06172839506172839,0,0)" xlink:href="#ap"/><use transform="matrix(0.06172839506172839,0,0,0.06172839506172839,11.11111111111111,0)" xlink:href="#ab"/><use transform="matrix(0.06172839506172839,0,0,0.06172839506172839,23.45679012345679,0)" xlink:href="#aw"/><use transform="matrix(0.06172839506172839,0,0,0.06172839506172839,41.91358024691358,0)" xlink:href="#aw"/><use transform="matrix(0.06172839506172839,0,0,0.06172839506172839,60.37037037037037,0)" xlink:href="#am"/><use transform="matrix(0.06172839506172839,0,0,0.06172839506172839,72.71604938271605,0)" xlink:href="#ah"/><use transform="matrix(0.06172839506172839,0,0,0.06172839506172839,85.06172839506173,0)" xlink:href="#am"/><use transform="matrix(0.06172839506172839,0,0,0.06172839506172839,97.40740740740742,0)" xlink:href="#ai"/><use transform="matrix(0.06172839506172839,0,0,0.06172839506172839,102.28395061728396,0)" xlink:href="#ad"/><use transform="matrix(0.06172839506172839,0,0,0.06172839506172839,108.4567901234568,0)" xlink:href="#aB"/><use transform="matrix(0.06172839506172839,0,0,0.06172839506172839,119.56790123456791,0)" xlink:href="#ag"/><use transform="matrix(0.06172839506172839,0,0,0.06172839506172839,131.9135802469136,0)" xlink:href="#ai"/><use transform="matrix(0.06172839506172839,0,0,0.06172839506172839,136.79012345679013,0)" xlink:href="#ai"/><use transform="matrix(0.06172839506172839,0,0,0.06172839506172839,141.66666666666666,0)" xlink:href="#aj"/><use transform="matrix(0.06172839506172839,0,0,0.06172839506172839,154.01234567901233,0)" xlink:href="#ak"/><use transform="matrix(0.06172839506172839,0,0,0.06172839506172839,160.18518518518516,0)" xlink:href="#aF"/><use transform="matrix(0.06172839506172839,0,0,0.06172839506172839,174.99999999999997,0)" xlink:href="#ad"/><use transform="matrix(0.06172839506172839,0,0,0.06172839506172839,181.1728395061728,0)" xlink:href="#al"/><use transform="matrix(0.06172839506172839,0,0,0.06172839506172839,188.51851851851848,0)" xlink:href="#ai"/><use transform="matrix(0.06172839506172839,0,0,0.06172839506172839,193.395061728395,0)" xlink:href="#am"/><use transform="matrix(0.06172839506172839,0,0,0.06172839506172839,205.74074074074068,0)" xlink:href="#an"/></g><path fill="#3a414a" d="M108 0H70L1-190h34L89-25l56-165h34" id="aG"/><path fill="#3a414a" d="M160-131c35 5 61 23 61 61C221 17 115-2 30 0v-248c76 3 177-17 177 60 0 33-19 50-47 57zm-97-11c50-1 110 9 110-42 0-47-63-36-110-37v79zm0 115c55-2 124 14 124-45 0-56-70-42-124-44v89" id="aH"/><g id="t"><use transform="matrix(0.06172839506172839,0,0,0.06172839506172839,0,0)" xlink:href="#aG"/><use transform="matrix(0.06172839506172839,0,0,0.06172839506172839,11.11111111111111,0)" xlink:href="#ai"/><use transform="matrix(0.06172839506172839,0,0,0.06172839506172839,15.987654320987653,0)" xlink:href="#ac"/><use transform="matrix(0.06172839506172839,0,0,0.06172839506172839,27.098765432098766,0)" xlink:href="#ai"/><use transform="matrix(0.06172839506172839,0,0,0.06172839506172839,31.975308641975307,0)" xlink:href="#aC"/><use transform="matrix(0.06172839506172839,0,0,0.06172839506172839,44.32098765432099,0)" xlink:href="#aq"/><use transform="matrix(0.06172839506172839,0,0,0.06172839506172839,49.19753086419753,0)" xlink:href="#as"/><use transform="matrix(0.06172839506172839,0,0,0.06172839506172839,61.54320987654321,0)" xlink:href="#ak"/><use transform="matrix(0.06172839506172839,0,0,0.06172839506172839,67.71604938271605,0)" xlink:href="#aH"/><use transform="matrix(0.06172839506172839,0,0,0.06172839506172839,82.53086419753086,0)" xlink:href="#ab"/><use transform="matrix(0.06172839506172839,0,0,0.06172839506172839,94.87654320987654,0)" xlink:href="#ab"/><use transform="matrix(0.06172839506172839,0,0,0.06172839506172839,107.22222222222223,0)" xlink:href="#aq"/><use transform="matrix(0.06172839506172839,0,0,0.06172839506172839,112.09876543209877,0)" xlink:href="#as"/><use transform="matrix(0.06172839506172839,0,0,0.06172839506172839,124.44444444444446,0)" xlink:href="#au"/><use transform="matrix(0.06172839506172839,0,0,0.06172839506172839,136.79012345679013,0)" xlink:href="#am"/></g><g id="u"><use transform="matrix(0.06172839506172839,0,0,0.06172839506172839,0,0)" xlink:href="#af"/><use transform="matrix(0.06172839506172839,0,0,0.06172839506172839,12.345679012345679,0)" xlink:href="#ab"/><use transform="matrix(0.06172839506172839,0,0,0.06172839506172839,24.691358024691358,0)" xlink:href="#ac"/><use transform="matrix(0.06172839506172839,0,0,0.06172839506172839,35.80246913580247,0)" xlink:href="#ad"/><use transform="matrix(0.06172839506172839,0,0,0.06172839506172839,41.97530864197531,0)" xlink:href="#ac"/><use transform="matrix(0.06172839506172839,0,0,0.06172839506172839,53.08641975308642,0)" xlink:href="#ak"/></g><path fill="#3a414a" d="M18-100v-36l175-74v27L42-118l151 64v27" id="aI"/><path fill="#3a414a" d="M18-27v-27l151-64-151-65v-27l175 74v36" id="aJ"/><g id="v"><use transform="matrix(0.06172839506172839,0,0,0.06172839506172839,0,0)" xlink:href="#aA"/><use transform="matrix(0.06172839506172839,0,0,0.06172839506172839,12.345679012345679,0)" xlink:href="#ai"/><use transform="matrix(0.06172839506172839,0,0,0.06172839506172839,17.22222222222222,0)" xlink:href="#ac"/><use transform="matrix(0.06172839506172839,0,0,0.06172839506172839,28.333333333333332,0)" xlink:href="#ad"/><use transform="matrix(0.06172839506172839,0,0,0.06172839506172839,34.50617283950617,0)" xlink:href="#aI"/><use transform="matrix(0.06172839506172839,0,0,0.06172839506172839,47.46913580246913,0)" xlink:href="#aa"/><use transform="matrix(0.06172839506172839,0,0,0.06172839506172839,62.28395061728395,0)" xlink:href="#ab"/><use transform="matrix(0.06172839506172839,0,0,0.06172839506172839,74.62962962962963,0)" xlink:href="#ac"/><use transform="matrix(0.06172839506172839,0,0,0.06172839506172839,85.74074074074075,0)" xlink:href="#ad"/><use transform="matrix(0.06172839506172839,0,0,0.06172839506172839,91.91358024691358,0)" xlink:href="#aJ"/></g><g id="w"><use transform="matrix(0.06172839506172839,0,0,0.06172839506172839,0,0)" xlink:href="#ah"/><use transform="matrix(0.06172839506172839,0,0,0.06172839506172839,12.345679012345679,0)" xlink:href="#ac"/><use transform="matrix(0.06172839506172839,0,0,0.06172839506172839,23.45679012345679,0)" xlink:href="#as"/><use transform="matrix(0.06172839506172839,0,0,0.06172839506172839,35.80246913580247,0)" xlink:href="#al"/><use transform="matrix(0.06172839506172839,0,0,0.06172839506172839,43.148148148148145,0)" xlink:href="#ac"/><use transform="matrix(0.06172839506172839,0,0,0.06172839506172839,54.25925925925925,0)" xlink:href="#ak"/></g><g id="x"><use transform="matrix(0.06172839506172839,0,0,0.06172839506172839,0,0)" xlink:href="#aA"/><use transform="matrix(0.06172839506172839,0,0,0.06172839506172839,12.345679012345679,0)" xlink:href="#ai"/><use transform="matrix(0.06172839506172839,0,0,0.06172839506172839,17.22222222222222,0)" xlink:href="#ac"/><use transform="matrix(0.06172839506172839,0,0,0.06172839506172839,28.333333333333332,0)" xlink:href="#ad"/><use transform="matrix(0.06172839506172839,0,0,0.06172839506172839,34.50617283950617,0)" xlink:href="#aI"/><use transform="matrix(0.06172839506172839,0,0,0.06172839506172839,47.46913580246913,0)" xlink:href="#ay"/><use transform="matrix(0.06172839506172839,0,0,0.06172839506172839,63.456790123456784,0)" xlink:href="#ac"/><use transform="matrix(0.06172839506172839,0,0,0.06172839506172839,74.5679012345679,0)" xlink:href="#as"/><use transform="matrix(0.06172839506172839,0,0,0.06172839506172839,86.91358024691358,0)" xlink:href="#al"/><use transform="matrix(0.06172839506172839,0,0,0.06172839506172839,94.25925925925927,0)" xlink:href="#aJ"/></g><g id="y"><use transform="matrix(0.06172839506172839,0,0,0.06172839506172839,0,0)" xlink:href="#ay"/><use transform="matrix(0.06172839506172839,0,0,0.06172839506172839,15.987654320987653,0)" xlink:href="#ac"/><use transform="matrix(0.06172839506172839,0,0,0.06172839506172839,27.098765432098766,0)" xlink:href="#as"/><use transform="matrix(0.06172839506172839,0,0,0.06172839506172839,39.44444444444444,0)" xlink:href="#al"/></g><use transform="matrix(0.06172839506172834,0,0,0.06172839506172834,0,0)" xlink:href="#ae" id="z"/><g id="A"><use transform="matrix(0.06172839506172834,0,0,0.06172839506172834,0,0)" xlink:href="#am"/><use transform="matrix(0.06172839506172834,0,0,0.06172839506172834,12.345679012345668,0)" xlink:href="#au"/><use transform="matrix(0.06172839506172834,0,0,0.06172839506172834,24.691358024691336,0)" xlink:href="#aw"/><use transform="matrix(0.06172839506172834,0,0,0.06172839506172834,43.14814814814811,0)" xlink:href="#as"/><use transform="matrix(0.06172839506172834,0,0,0.06172839506172834,55.49382716049378,0)" xlink:href="#ak"/><use transform="matrix(0.06172839506172834,0,0,0.06172839506172834,61.666666666666615,0)" xlink:href="#ac"/><use transform="matrix(0.06172839506172834,0,0,0.06172839506172834,72.77777777777771,0)" xlink:href="#ad"/><use transform="matrix(0.06172839506172834,0,0,0.06172839506172834,78.95061728395055,0)" xlink:href="#al"/><use transform="matrix(0.06172839506172834,0,0,0.06172839506172834,86.29629629629622,0)" xlink:href="#ai"/><use transform="matrix(0.06172839506172834,0,0,0.06172839506172834,91.17283950617276,0)" xlink:href="#am"/><use transform="matrix(0.06172839506172834,0,0,0.06172839506172834,103.51851851851843,0)" xlink:href="#an"/></g><g id="B"><use transform="matrix(0.06172839506172834,0,0,0.06172839506172834,0,0)" xlink:href="#ah"/><use transform="matrix(0.06172839506172834,0,0,0.06172839506172834,12.345679012345668,0)" xlink:href="#ac"/><use transform="matrix(0.06172839506172834,0,0,0.06172839506172834,23.45679012345677,0)" xlink:href="#as"/><use transform="matrix(0.06172839506172834,0,0,0.06172839506172834,35.80246913580244,0)" xlink:href="#al"/><use transform="matrix(0.06172839506172834,0,0,0.06172839506172834,43.14814814814811,0)" xlink:href="#am"/><use transform="matrix(0.06172839506172834,0,0,0.06172839506172834,55.49382716049378,0)" xlink:href="#au"/><use transform="matrix(0.06172839506172834,0,0,0.06172839506172834,67.83950617283945,0)" xlink:href="#aw"/><use transform="matrix(0.06172839506172834,0,0,0.06172839506172834,86.29629629629622,0)" xlink:href="#as"/><use transform="matrix(0.06172839506172834,0,0,0.06172839506172834,98.64197530864189,0)" xlink:href="#ak"/></g><g id="C"><use transform="matrix(0.06172839506172834,0,0,0.06172839506172834,0,0)" xlink:href="#ac"/><use transform="matrix(0.06172839506172834,0,0,0.06172839506172834,11.111111111111102,0)" xlink:href="#ad"/><use transform="matrix(0.06172839506172834,0,0,0.06172839506172834,17.283950617283935,0)" xlink:href="#al"/><use transform="matrix(0.06172839506172834,0,0,0.06172839506172834,24.62962962962961,0)" xlink:href="#ai"/><use transform="matrix(0.06172839506172834,0,0,0.06172839506172834,29.50617283950615,0)" xlink:href="#am"/><use transform="matrix(0.06172839506172834,0,0,0.06172839506172834,41.85185185185182,0)" xlink:href="#an"/></g><path fill="#3a414a" d="M16-82v-28h88v28H16" id="aK"/><use transform="matrix(0.06172839506172834,0,0,0.06172839506172834,0,0)" xlink:href="#aK" id="D"/><g id="E"><use transform="matrix(0.06172839506172834,0,0,0.06172839506172834,0,0)" xlink:href="#as"/><use transform="matrix(0.06172839506172834,0,0,0.06172839506172834,12.345679012345668,0)" xlink:href="#aw"/><use transform="matrix(0.06172839506172834,0,0,0.06172839506172834,30.80246913580244,0)" xlink:href="#au"/><use transform="matrix(0.06172839506172834,0,0,0.06172839506172834,43.14814814814811,0)" xlink:href="#ai"/><use transform="matrix(0.06172839506172834,0,0,0.06172839506172834,48.02469135802465,0)" xlink:href="#aq"/><use transform="matrix(0.06172839506172834,0,0,0.06172839506172834,52.901234567901184,0)" xlink:href="#ak"/></g><g id="F"><use transform="matrix(0.06172839506172834,0,0,0.06172839506172834,0,0)" xlink:href="#ao"/><use transform="matrix(0.06172839506172834,0,0,0.06172839506172834,6.172839506172834,0)" xlink:href="#al"/><use transform="matrix(0.06172839506172834,0,0,0.06172839506172834,13.518518518518507,0)" xlink:href="#ai"/><use transform="matrix(0.06172839506172834,0,0,0.06172839506172834,18.395061728395046,0)" xlink:href="#as"/><use transform="matrix(0.06172839506172834,0,0,0.06172839506172834,30.740740740740712,0)" xlink:href="#am"/><use transform="matrix(0.06172839506172834,0,0,0.06172839506172834,43.08641975308638,0)" xlink:href="#aj"/><use transform="matrix(0.06172839506172834,0,0,0.06172839506172834,55.43209876543205,0)" xlink:href="#ac"/><use transform="matrix(0.06172839506172834,0,0,0.06172839506172834,66.54320987654316,0)" xlink:href="#ag"/><use transform="matrix(0.06172839506172834,0,0,0.06172839506172834,78.88888888888883,0)" xlink:href="#aq"/><use transform="matrix(0.06172839506172834,0,0,0.06172839506172834,83.76543209876537,0)" xlink:href="#ai"/><use transform="matrix(0.06172839506172834,0,0,0.06172839506172834,88.64197530864192,0)" xlink:href="#ac"/><use transform="matrix(0.06172839506172834,0,0,0.06172839506172834,99.75308641975302,0)" xlink:href="#ad"/><use transform="matrix(0.06172839506172834,0,0,0.06172839506172834,105.92592592592585,0)" xlink:href="#ak"/></g><g id="G"><use transform="matrix(0.06172839506172834,0,0,0.06172839506172834,0,0)" xlink:href="#aA"/><use transform="matrix(0.06172839506172834,0,0,0.06172839506172834,12.345679012345668,0)" xlink:href="#ai"/><use transform="matrix(0.06172839506172834,0,0,0.06172839506172834,17.222222222222207,0)" xlink:href="#ac"/><use transform="matrix(0.06172839506172834,0,0,0.06172839506172834,28.333333333333307,0)" xlink:href="#ad"/><use transform="matrix(0.06172839506172834,0,0,0.06172839506172834,34.50617283950614,0)" xlink:href="#aI"/><use transform="matrix(0.06172839506172834,0,0,0.06172839506172834,47.4691358024691,0)" xlink:href="#ay"/><use transform="matrix(0.06172839506172834,0,0,0.06172839506172834,63.456790123456734,0)" xlink:href="#ac"/><use transform="matrix(0.06172839506172834,0,0,0.06172839506172834,74.56790123456784,0)" xlink:href="#as"/><use transform="matrix(0.06172839506172834,0,0,0.06172839506172834,86.91358024691351,0)" xlink:href="#al"/><use transform="matrix(0.06172839506172834,0,0,0.06172839506172834,94.25925925925918,0)" xlink:href="#aJ"/></g><path fill="#3a414a" d="M141 0L90-78 38 0H4l68-98-65-92h35l48 74 47-74h35l-64 92 68 98h-35" id="aL"/><g id="H"><use transform="matrix(0.06172839506172834,0,0,0.06172839506172834,0,0)" xlink:href="#as"/><use transform="matrix(0.06172839506172834,0,0,0.06172839506172834,12.345679012345668,0)" xlink:href="#aL"/><use transform="matrix(0.06172839506172834,0,0,0.06172839506172834,23.45679012345677,0)" xlink:href="#ad"/><use transform="matrix(0.06172839506172834,0,0,0.06172839506172834,29.629629629629605,0)" xlink:href="#as"/><use transform="matrix(0.06172839506172834,0,0,0.06172839506172834,41.975308641975275,0)" xlink:href="#al"/><use transform="matrix(0.06172839506172834,0,0,0.06172839506172834,49.320987654320945,0)" xlink:href="#am"/><use transform="matrix(0.06172839506172834,0,0,0.06172839506172834,61.666666666666615,0)" xlink:href="#au"/><use transform="matrix(0.06172839506172834,0,0,0.06172839506172834,74.01234567901228,0)" xlink:href="#aq"/><use transform="matrix(0.06172839506172834,0,0,0.06172839506172834,78.88888888888883,0)" xlink:href="#ag"/><use transform="matrix(0.06172839506172834,0,0,0.06172839506172834,91.2345679012345,0)" xlink:href="#aq"/><use transform="matrix(0.06172839506172834,0,0,0.06172839506172834,96.11111111111104,0)" xlink:href="#ai"/><use transform="matrix(0.06172839506172834,0,0,0.06172839506172834,100.98765432098759,0)" xlink:href="#am"/><use transform="matrix(0.06172839506172834,0,0,0.06172839506172834,113.33333333333326,0)" xlink:href="#ar"/><use transform="matrix(0.06172839506172834,0,0,0.06172839506172834,124.44444444444436,0)" xlink:href="#ac"/><use transform="matrix(0.06172839506172834,0,0,0.06172839506172834,135.55555555555546,0)" xlink:href="#ak"/></g><path fill="#3a414a" d="M233-177c-1 41-23 64-60 70L243 0h-38l-65-103H63V0H30v-248c88 3 205-21 203 71zM63-129c60-2 137 13 137-47 0-61-80-42-137-45v92" id="aM"/><g id="I"><use transform="matrix(0.06172839506172834,0,0,0.06172839506172834,0,0)" xlink:href="#ay"/><use transform="matrix(0.06172839506172834,0,0,0.06172839506172834,15.987654320987641,0)" xlink:href="#aM"/><use transform="matrix(0.06172839506172834,0,0,0.06172839506172834,31.975308641975282,0)" xlink:href="#aA"/></g><g id="J"><use transform="matrix(0.06172839506172834,0,0,0.06172839506172834,0,0)" xlink:href="#aG"/><use transform="matrix(0.06172839506172834,0,0,0.06172839506172834,11.111111111111102,0)" xlink:href="#ai"/><use transform="matrix(0.06172839506172834,0,0,0.06172839506172834,15.987654320987641,0)" xlink:href="#ac"/><use transform="matrix(0.06172839506172834,0,0,0.06172839506172834,27.098765432098745,0)" xlink:href="#ai"/><use transform="matrix(0.06172839506172834,0,0,0.06172839506172834,31.975308641975282,0)" xlink:href="#aC"/><use transform="matrix(0.06172839506172834,0,0,0.06172839506172834,44.32098765432095,0)" xlink:href="#ai"/><use transform="matrix(0.06172839506172834,0,0,0.06172839506172834,49.19753086419749,0)" xlink:href="#aq"/><use transform="matrix(0.06172839506172834,0,0,0.06172839506172834,54.074074074074026,0)" xlink:href="#ai"/><use transform="matrix(0.06172839506172834,0,0,0.06172839506172834,58.950617283950564,0)" xlink:href="#ad"/><use transform="matrix(0.06172839506172834,0,0,0.06172839506172834,65.1234567901234,0)" xlink:href="#aB"/><use transform="matrix(0.06172839506172834,0,0,0.06172839506172834,76.2345679012345,0)" xlink:href="#ak"/></g><g id="K"><use transform="matrix(0.06172839506172834,0,0,0.06172839506172834,0,0)" xlink:href="#aC"/><use transform="matrix(0.06172839506172834,0,0,0.06172839506172834,12.345679012345668,0)" xlink:href="#ab"/><use transform="matrix(0.06172839506172834,0,0,0.06172839506172834,24.691358024691336,0)" xlink:href="#ab"/><use transform="matrix(0.06172839506172834,0,0,0.06172839506172834,37.037037037037,0)" xlink:href="#aq"/><use transform="matrix(0.06172839506172834,0,0,0.06172839506172834,41.91358024691354,0)" xlink:href="#as"/><use transform="matrix(0.06172839506172834,0,0,0.06172839506172834,54.25925925925921,0)" xlink:href="#au"/><use transform="matrix(0.06172839506172834,0,0,0.06172839506172834,66.60493827160488,0)" xlink:href="#am"/></g><g id="L"><use transform="matrix(0.06172839506172834,0,0,0.06172839506172834,0,0)" xlink:href="#al"/><use transform="matrix(0.06172839506172834,0,0,0.06172839506172834,7.3456790123456726,0)" xlink:href="#ab"/><use transform="matrix(0.06172839506172834,0,0,0.06172839506172834,19.69135802469134,0)" xlink:href="#aq"/><use transform="matrix(0.06172839506172834,0,0,0.06172839506172834,24.567901234567877,0)" xlink:href="#as"/><use transform="matrix(0.06172839506172834,0,0,0.06172839506172834,36.91358024691355,0)" xlink:href="#ak"/></g><g id="M"><use transform="matrix(0.06172839506172834,0,0,0.06172839506172834,0,0)" xlink:href="#al"/><use transform="matrix(0.06172839506172834,0,0,0.06172839506172834,7.3456790123456726,0)" xlink:href="#ab"/><use transform="matrix(0.06172839506172834,0,0,0.06172839506172834,19.69135802469134,0)" xlink:href="#aq"/><use transform="matrix(0.06172839506172834,0,0,0.06172839506172834,24.567901234567877,0)" xlink:href="#as"/></g><path fill="#3a414a" d="M206 0h-36l-40-164L89 0H53L-1-190h32L70-26l43-164h34l41 164 42-164h31" id="aN"/><g id="N"><use transform="matrix(0.06172839506172834,0,0,0.06172839506172834,0,0)" xlink:href="#af"/><use transform="matrix(0.06172839506172834,0,0,0.06172839506172834,12.345679012345668,0)" xlink:href="#au"/><use transform="matrix(0.06172839506172834,0,0,0.06172839506172834,24.691358024691336,0)" xlink:href="#ac"/><use transform="matrix(0.06172839506172834,0,0,0.06172839506172834,35.80246913580244,0)" xlink:href="#ac"/><use transform="matrix(0.06172839506172834,0,0,0.06172839506172834,46.91358024691354,0)" xlink:href="#aN"/><use transform="matrix(0.06172839506172834,0,0,0.06172839506172834,62.901234567901184,0)" xlink:href="#ab"/><use transform="matrix(0.06172839506172834,0,0,0.06172839506172834,75.24691358024685,0)" xlink:href="#al"/><use transform="matrix(0.06172839506172834,0,0,0.06172839506172834,82.59259259259252,0)" xlink:href="#aj"/><use transform="matrix(0.06172839506172834,0,0,0.06172839506172834,94.9382716049382,0)" xlink:href="#ak"/></g><path fill="#282c33" d="M212-179c-10-28-35-45-73-45-59 0-87 40-87 99 0 60 29 101 89 101 43 0 62-24 78-52l27 14C228-24 195 4 139 4 59 4 22-46 18-125c-6-104 99-153 187-111 19 9 31 26 39 46" id="aO"/><path fill="#282c33" d="M106-169C34-169 62-67 57 0H25v-261h32l-1 103c12-21 28-36 61-36 89 0 53 116 60 194h-32v-121c2-32-8-49-39-48" id="aP"/><path fill="#282c33" d="M141-36C126-15 110 5 73 4 37 3 15-17 15-53c-1-64 63-63 125-63 3-35-9-54-41-54-24 1-41 7-42 31l-33-3c5-37 33-52 76-52 45 0 72 20 72 64v82c-1 20 7 32 28 27v20c-31 9-61-2-59-35zM48-53c0 20 12 33 32 33 41-3 63-29 60-74-43 2-92-5-92 41" id="aQ"/><path fill="#282c33" d="M59-47c-2 24 18 29 38 22v24C64 9 27 4 27-40v-127H5v-23h24l9-43h21v43h35v23H59v120" id="aR"/><g id="P"><use transform="matrix(0.06172839506172839,0,0,0.06172839506172839,0,0)" xlink:href="#aO"/><use transform="matrix(0.06172839506172839,0,0,0.06172839506172839,15.987654320987653,0)" xlink:href="#aP"/><use transform="matrix(0.06172839506172839,0,0,0.06172839506172839,28.333333333333332,0)" xlink:href="#aQ"/><use transform="matrix(0.06172839506172839,0,0,0.06172839506172839,40.67901234567901,0)" xlink:href="#aR"/></g><path fill="#3a414a" d="M240 0l2-218c-23 76-54 145-80 218h-23L58-218 59 0H30v-248h44l77 211c21-75 51-140 76-211h43V0h-30" id="aS"/><g id="Q"><use transform="matrix(0.06172839506172839,0,0,0.06172839506172839,0,0)" xlink:href="#aS"/><use transform="matrix(0.06172839506172839,0,0,0.06172839506172839,18.456790123456788,0)" xlink:href="#as"/><use transform="matrix(0.06172839506172839,0,0,0.06172839506172839,30.80246913580247,0)" xlink:href="#ac"/><use transform="matrix(0.06172839506172839,0,0,0.06172839506172839,41.91358024691358,0)" xlink:href="#ac"/><use transform="matrix(0.06172839506172839,0,0,0.06172839506172839,53.0246913580247,0)" xlink:href="#au"/><use transform="matrix(0.06172839506172839,0,0,0.06172839506172839,65.37037037037038,0)" xlink:href="#an"/><use transform="matrix(0.06172839506172839,0,0,0.06172839506172839,77.71604938271606,0)" xlink:href="#as"/><use transform="matrix(0.06172839506172839,0,0,0.06172839506172839,90.06172839506175,0)" xlink:href="#ac"/><use transform="matrix(0.06172839506172839,0,0,0.06172839506172839,101.17283950617286,0)" xlink:href="#ak"/></g><g id="R"><use transform="matrix(0.06172839506172839,0,0,0.06172839506172839,0,0)" xlink:href="#aA"/><use transform="matrix(0.06172839506172839,0,0,0.06172839506172839,12.345679012345679,0)" xlink:href="#ai"/><use transform="matrix(0.06172839506172839,0,0,0.06172839506172839,17.22222222222222,0)" xlink:href="#ac"/><use transform="matrix(0.06172839506172839,0,0,0.06172839506172839,28.333333333333332,0)" xlink:href="#ad"/><use transform="matrix(0.06172839506172839,0,0,0.06172839506172839,34.50617283950617,0)" xlink:href="#aI"/><use transform="matrix(0.06172839506172839,0,0,0.06172839506172839,47.46913580246913,0)" xlink:href="#ac"/><use transform="matrix(0.06172839506172839,0,0,0.06172839506172839,58.58024691358024,0)" xlink:href="#ad"/><use transform="matrix(0.06172839506172839,0,0,0.06172839506172839,64.75308641975307,0)" xlink:href="#al"/><use transform="matrix(0.06172839506172839,0,0,0.06172839506172839,72.09876543209876,0)" xlink:href="#ai"/><use transform="matrix(0.06172839506172839,0,0,0.06172839506172839,76.9753086419753,0)" xlink:href="#am"/><use transform="matrix(0.06172839506172839,0,0,0.06172839506172839,89.32098765432099,0)" xlink:href="#an"/><use transform="matrix(0.06172839506172839,0,0,0.06172839506172839,101.66666666666667,0)" xlink:href="#aJ"/></g><path fill="#3a414a" d="M27 0v-27h64v-190l-56 39v-29l58-41h29v221h61V0H27" id="aT"/><g id="S"><use transform="matrix(0.06172839506172839,0,0,0.06172839506172839,0,0)" xlink:href="#ah"/><use transform="matrix(0.06172839506172839,0,0,0.06172839506172839,12.345679012345679,0)" xlink:href="#ac"/><use transform="matrix(0.06172839506172839,0,0,0.06172839506172839,23.45679012345679,0)" xlink:href="#as"/><use transform="matrix(0.06172839506172839,0,0,0.06172839506172839,35.80246913580247,0)" xlink:href="#al"/><use transform="matrix(0.06172839506172839,0,0,0.06172839506172839,43.148148148148145,0)" xlink:href="#ag"/><use transform="matrix(0.06172839506172839,0,0,0.06172839506172839,55.49382716049382,0)" xlink:href="#ai"/><use transform="matrix(0.06172839506172839,0,0,0.06172839506172839,60.37037037037037,0)" xlink:href="#aj"/><use transform="matrix(0.06172839506172839,0,0,0.06172839506172839,72.71604938271605,0)" xlink:href="#ag"/><use transform="matrix(0.06172839506172839,0,0,0.06172839506172839,85.06172839506173,0)" xlink:href="#aT"/><use transform="matrix(0.06172839506172839,0,0,0.06172839506172839,97.40740740740742,0)" xlink:href="#ak"/></g><g id="T"><use transform="matrix(0.06172839506172839,0,0,0.06172839506172839,0,0)" xlink:href="#ac"/><use transform="matrix(0.06172839506172839,0,0,0.06172839506172839,11.11111111111111,0)" xlink:href="#ad"/><use transform="matrix(0.06172839506172839,0,0,0.06172839506172839,17.28395061728395,0)" xlink:href="#al"/><use transform="matrix(0.06172839506172839,0,0,0.06172839506172839,24.629629629629626,0)" xlink:href="#ai"/><use transform="matrix(0.06172839506172839,0,0,0.06172839506172839,29.50617283950617,0)" xlink:href="#am"/><use transform="matrix(0.06172839506172839,0,0,0.06172839506172839,41.85185185185185,0)" xlink:href="#an"/></g><path fill="#3a414a" d="M101-251c82-7 93 87 43 132L82-64C71-53 59-42 53-27h129V0H18c2-99 128-94 128-182 0-28-16-43-45-43s-46 15-49 41l-32-3c6-41 34-60 81-64" id="aU"/><g id="U"><use transform="matrix(0.06172839506172839,0,0,0.06172839506172839,0,0)" xlink:href="#ah"/><use transform="matrix(0.06172839506172839,0,0,0.06172839506172839,12.345679012345679,0)" xlink:href="#ac"/><use transform="matrix(0.06172839506172839,0,0,0.06172839506172839,23.45679012345679,0)" xlink:href="#as"/><use transform="matrix(0.06172839506172839,0,0,0.06172839506172839,35.80246913580247,0)" xlink:href="#al"/><use transform="matrix(0.06172839506172839,0,0,0.06172839506172839,43.148148148148145,0)" xlink:href="#ag"/><use transform="matrix(0.06172839506172839,0,0,0.06172839506172839,55.49382716049382,0)" xlink:href="#ai"/><use transform="matrix(0.06172839506172839,0,0,0.06172839506172839,60.37037037037037,0)" xlink:href="#aj"/><use transform="matrix(0.06172839506172839,0,0,0.06172839506172839,72.71604938271605,0)" xlink:href="#ag"/><use transform="matrix(0.06172839506172839,0,0,0.06172839506172839,85.06172839506173,0)" xlink:href="#aU"/><use transform="matrix(0.06172839506172839,0,0,0.06172839506172839,97.40740740740742,0)" xlink:href="#ak"/></g><g id="V"><use transform="matrix(0.06172839506172839,0,0,0.06172839506172839,0,0)" xlink:href="#ac"/><use transform="matrix(0.06172839506172839,0,0,0.06172839506172839,11.11111111111111,0)" xlink:href="#ad"/><use transform="matrix(0.06172839506172839,0,0,0.06172839506172839,17.28395061728395,0)" xlink:href="#al"/><use transform="matrix(0.06172839506172839,0,0,0.06172839506172839,24.629629629629626,0)" xlink:href="#ai"/><use transform="matrix(0.06172839506172839,0,0,0.06172839506172839,29.50617283950617,0)" xlink:href="#am"/><use transform="matrix(0.06172839506172839,0,0,0.06172839506172839,41.85185185185185,0)" xlink:href="#an"/></g><path fill="#3a414a" d="M155-56V0h-30v-56H8v-25l114-167h33v167h35v25h-35zm-30-156c-27 46-58 90-88 131h88v-131" id="aV"/><g id="W"><use transform="matrix(0.06172839506172839,0,0,0.06172839506172839,0,0)" xlink:href="#aU"/><use transform="matrix(0.06172839506172839,0,0,0.06172839506172839,12.345679012345679,0)" xlink:href="#aE"/><use transform="matrix(0.06172839506172839,0,0,0.06172839506172839,24.691358024691358,0)" xlink:href="#aU"/><use transform="matrix(0.06172839506172839,0,0,0.06172839506172839,37.03703703703704,0)" xlink:href="#aV"/><use transform="matrix(0.06172839506172839,0,0,0.06172839506172839,49.382716049382715,0)" xlink:href="#aK"/><use transform="matrix(0.06172839506172839,0,0,0.06172839506172839,56.72839506172839,0)" xlink:href="#aE"/><use transform="matrix(0.06172839506172839,0,0,0.06172839506172839,69.07407407407408,0)" xlink:href="#aU"/><use transform="matrix(0.06172839506172839,0,0,0.06172839506172839,81.41975308641976,0)" xlink:href="#aK"/><use transform="matrix(0.06172839506172839,0,0,0.06172839506172839,88.76543209876544,0)" xlink:href="#aU"/><use transform="matrix(0.06172839506172839,0,0,0.06172839506172839,101.11111111111113,0)" xlink:href="#aU"/></g><path fill="#3a414a" d="M143 4C61 4 22-44 18-125c-5-107 100-154 193-111 17 8 29 25 37 43l-32 9c-13-25-37-40-76-40-61 0-88 39-88 99 0 61 29 100 91 101 35 0 62-11 79-27v-45h-74v-28h105v86C228-13 192 4 143 4" id="aW"/><g id="X"><use transform="matrix(0.06172839506172839,0,0,0.06172839506172839,0,0)" xlink:href="#aW"/><use transform="matrix(0.06172839506172839,0,0,0.06172839506172839,17.28395061728395,0)" xlink:href="#al"/><use transform="matrix(0.06172839506172839,0,0,0.06172839506172839,24.629629629629626,0)" xlink:href="#ab"/><use transform="matrix(0.06172839506172839,0,0,0.06172839506172839,36.9753086419753,0)" xlink:href="#ah"/><use transform="matrix(0.06172839506172839,0,0,0.06172839506172839,49.32098765432098,0)" xlink:href="#af"/></g><use transform="matrix(0.06172839506172839,0,0,0.06172839506172839,0,0)" xlink:href="#aU" id="Y"/><g id="Z"><use transform="matrix(0.06172839506172839,0,0,0.06172839506172839,0,0)" xlink:href="#az"/><use transform="matrix(0.06172839506172839,0,0,0.06172839506172839,15.987654320987653,0)" xlink:href="#ai"/><use transform="matrix(0.06172839506172839,0,0,0.06172839506172839,20.864197530864196,0)" xlink:href="#au"/><use transform="matrix(0.06172839506172839,0,0,0.06172839506172839,33.20987654320987,0)" xlink:href="#an"/><use transform="matrix(0.06172839506172839,0,0,0.06172839506172839,45.55555555555555,0)" xlink:href="#al"/><use transform="matrix(0.06172839506172839,0,0,0.06172839506172839,52.90123456790123,0)" xlink:href="#au"/><use transform="matrix(0.06172839506172839,0,0,0.06172839506172839,65.24691358024691,0)" xlink:href="#aw"/></g></defs></g></svg>
